<svg xmlns="http://www.w3.org/2000/svg" xmlns:xlink="http://www.w3.org/1999/xlink" width="400" height="400" viewBox="0 0 400 400">
<rect data-name="background" width="100%" height="100%" fill="#ffffff"/><g data-name="icon" fill="#43844f" data="id:7189124" transform="translate(125.14297765222231,73.63127727004743) scale(1.4971996737950668)">
    
 <path d="m20.699 34.684c-3.3047 17.652 5.9219 33.82 24.82 38.148-3.5273-4.1016-13.098-19.355-13.551-22.434 2.8477 3.8711 14.234 18.906 15.375 22.434 0.46094-6.6016 14.691-26.531 19.93-30.52-2.7305 3.418-16.055 25.625-17.766 30.406 22.551-5.1211 33.48-24.48 29.723-45.547-17.309 3.1836-29.605 15.258-32.109 31.539-2.9648-12.414-12.867-21.637-26.422-24.027z" fill-rule="evenodd"/>

    </g><g data-name="business_name" fill="#43844f" data="id:10" transform="translate(107.0538722563144,163.14534864096402) scale(2.533973091925873)"><path d="M2.44,48l0-32.4l13.6,0l0,4.16l-7.68,0l0,9.32l6.04,0l0,4.12l-6.04,0l0,10.72l7.76,0l0,4.08l-13.68,0z M24.4,48.36q-2.76,0-4.18-1.96t-1.42-6.28l0-7.08q0-2.4,0.54-4.32t1.74-3.06t3.24-1.14q1.24,0,2.3,0.5t1.94,1.3l0-10.72l5.44,0l0,32.4l-5.44,0l0-1.64q-0.92,0.92-1.96,1.46t-2.2,0.54z M26.4,44.6q0.44,0,1-0.2t1.16-0.56l0-14.84q-0.48-0.32-1.04-0.54t-1.16-0.22q-1.16,0-1.62,1.06t-0.46,2.58l0,8.64q0,1.16,0.16,2.08t0.62,1.46t1.34,0.54z M45.12,48.36q-2.6,0-4.24-0.98t-2.42-2.88t-0.78-4.58l0-6.96q0-2.76,0.78-4.64t2.44-2.84t4.22-0.96q2.76,0,4.3,1.04t2.2,3.02t0.66,4.82l0,3.28l-9.2,0l0,4.56q0,1.12,0.22,1.84t0.7,1.04t1.16,0.32q0.72,0,1.16-0.34t0.64-1t0.2-1.66l0-1.92l5.08,0l0,1.56q0,3.52-1.76,5.4t-5.36,1.88z M43.08,34l4.08,0l0-2.2q0-1.2-0.2-1.94t-0.64-1.08t-1.24-0.34q-0.72,0-1.16,0.36t-0.64,1.2t-0.2,2.4l0,1.6z M55.96,48l0-23.12l5.44,0l0,2.32q1.24-1.2,2.62-1.94t2.98-0.74q1.44,0,2.28,0.7t1.24,1.86t0.4,2.52l0,18.4l-5.44,0l0-17.32q0-1.04-0.32-1.6t-1.24-0.56q-0.56,0-1.22,0.32t-1.3,0.8l0,18.36l-5.44,0z"/></g></svg>